<?xml version="1.0" encoding="utf-8"?>
<!-- Generator: Adobe Illustrator 18.1.1, SVG Export Plug-In . SVG Version: 6.00 Build 0)  -->
<svg version="1.1" id="Capa_1" xmlns="http://www.w3.org/2000/svg" xmlns:xlink="http://www.w3.org/1999/xlink" x="0px" y="0px"
	 viewBox="0 0 841.9 595.3" enable-background="new 0 0 841.9 595.3" xml:space="preserve">
<g>
	<path fill="#FFFFFF" d="M398,432c3.6,6,5.3,13.1,5.3,21.3c0,12.4-3.7,22.8-11.2,31.2c-7.4,8.3-18.1,13.3-32.1,14.6v21.3h-17.8
		v-21.2c-23.4-2.4-37.8-15.9-43.4-40.7l27.6-7.2c2.6,15.6,11,23.4,25.3,23.4c6.7,0,11.6-1.6,14.9-5c3.1-3.4,4.8-7.3,4.8-12.1
		c0-4.9-1.6-8.6-4.8-11c-3.1-2.6-10.2-5.7-21.2-9.5c-9.8-3.4-17.4-6.7-23-10.1c-5.5-3.3-10-7.9-13.4-14c-3.5-6-5.2-13-5.2-20.9
		c0-10.5,3.1-19.9,9.2-28.1c6.2-8.4,15.8-13.4,29.1-15.3V332H360v16.5c19.9,2.4,32.9,13.7,38.7,33.8L374,392.5
		c-4.8-13.8-12.2-20.7-22.2-20.7c-5,0-9.1,1.5-12.1,4.7c-3,3.1-4.7,6.9-4.7,11.3c0,4.5,1.5,7.9,4.4,10.3c2.9,2.4,9.2,5.3,18.8,8.8
		c10.6,3.8,19,7.6,24.9,10.9C389.6,421.2,394.4,426,398,432z M508.1,426.2c0,86.7-70.2,157-157,157s-157-70.2-157-157
		s70.2-157,157-157S508.1,339.6,508.1,426.2z M476.7,426.2c0-69.3-56.3-125.6-125.6-125.6s-125.6,56.3-125.6,125.6
		s56.3,125.6,125.6,125.6S476.7,495.5,476.7,426.2z M256.9,143.7h188.4c8.7,0,15.7-5.2,15.7-11.7v-23.5c0-6.5-7-11.7-15.7-11.7
		H256.9c-8.7,0-15.7,5.2-15.7,11.7v23.6C241.2,138.5,248.2,143.7,256.9,143.7z M256.9,206.5h188.4c8.7,0,15.7-5.2,15.7-11.7v-23.5
		c0-6.5-7-11.7-15.7-11.7H256.9c-8.7,0-15.7,5.2-15.7,11.7v23.6C241.2,201.2,248.2,206.5,256.9,206.5z M21.5,520.4h185.1
		c-9.4-14.3-16.6-30.2-21.5-47.1H21.4c-8.7,0-15.7,5.2-15.7,11.7v23.5C5.8,515.2,12.8,520.4,21.5,520.4z M209.9,536.1H21.5
		c-8.7,0-15.7,5.2-15.7,11.7v23.6c0,6.5,7,11.7,15.7,11.7h188.4c8.7,0,15.7-5.2,15.7-11.7v-23.6
		C225.6,541.4,218.6,536.1,209.9,536.1z M21.5,457.6h160c-1.9-10.2-3-20.7-3-31.4c0-5.3,0.3-10.5,0.8-15.7H21.5
		c-8.7,0-15.7,5.2-15.7,11.7v23.5C5.8,452.4,12.8,457.6,21.5,457.6z M256.9,269.3h22.7c21.9-10,45.9-15.7,71.5-15.7
		c25.5,0,49.6,5.7,71.5,15.7h22.7c8.7,0,15.7-5.2,15.7-11.7v-23.6c0-6.5-7-11.7-15.7-11.7H256.9c-8.7,0-15.7,5.2-15.7,11.7v23.6
		C241.2,264,248.2,269.3,256.9,269.3z M21.5,269.3h188.4c8.7,0,15.7-5.2,15.7-11.7v-23.6c0-6.5-7-11.7-15.7-11.7H21.5
		c-8.7,0-15.7,5.2-15.7,11.7v23.6C5.8,264,12.8,269.3,21.5,269.3z M21.5,394.8h160c3-16.6,8.6-32.4,16-47.1h-176
		c-8.7,0-15.7,5.2-15.7,11.7v23.6C5.8,389.6,12.8,394.8,21.5,394.8z M21.5,332h185.1c5.6-8.6,12-16.5,19-24v-11.4
		c0-6.5-7-11.7-15.7-11.7H21.5c-8.7,0-15.7,5.2-15.7,11.7v23.6C5.8,326.8,12.8,332,21.5,332z"/>
</g>
</svg>
