<?xml version="1.0" encoding="utf-8"?>
<!-- Generator: Adobe Illustrator 18.1.1, SVG Export Plug-In . SVG Version: 6.00 Build 0)  -->
<svg version="1.1" id="Capa_1" xmlns="http://www.w3.org/2000/svg" xmlns:xlink="http://www.w3.org/1999/xlink" x="0px" y="0px"
	 viewBox="-164 42.3 512 512" enable-background="new -164 42.3 512 512" xml:space="preserve">
<g>
	<path fill="#1565C0" d="M213.3,377.5c3.1,5.2,4.6,11.3,4.6,18.3c0,10.7-3.2,19.6-9.6,26.8c-6.4,7.1-15.6,11.4-27.6,12.6v18.3h-15.3
		v-18.2c-20.1-2.1-32.5-13.7-37.3-35l23.7-6.2c2.2,13.4,9.5,20.1,21.8,20.1c5.8,0,10-1.4,12.8-4.3c2.7-2.9,4.1-6.3,4.1-10.4
		c0-4.2-1.4-7.4-4.1-9.5c-2.7-2.2-8.8-4.9-18.2-8.2c-8.4-2.9-15-5.8-19.8-8.7c-4.7-2.8-8.6-6.8-11.5-12c-3-5.2-4.5-11.2-4.5-18
		c0-9,2.7-17.1,7.9-24.2c5.3-7.2,13.6-11.5,25-13.2v-14.2h15.3v14.2c17.1,2.1,28.3,11.8,33.3,29.1l-21.2,8.7
		c-4.1-11.9-10.5-17.8-19.1-17.8c-4.3,0-7.8,1.3-10.4,4c-2.6,2.7-4,5.9-4,9.7c0,3.9,1.3,6.8,3.8,8.9c2.5,2.1,7.9,4.6,16.2,7.6
		c9.1,3.3,16.3,6.5,21.4,9.4C206.1,368.2,210.2,372.3,213.3,377.5z M308,372.5c0,74.6-60.4,135-135,135c-74.6,0-135-60.4-135-135
		c0-74.6,60.4-135,135-135C247.6,237.5,308,298,308,372.5z M281,372.5c0-59.6-48.4-108-108-108c-59.6,0-108,48.4-108,108
		c0,59.6,48.4,108,108,108S281,432.1,281,372.5z M92,129.5h162c7.5,0,13.5-4.5,13.5-10.1V99.2c0-5.6-6-10.1-13.5-10.1H92
		c-7.5,0-13.5,4.5-13.5,10.1v20.3C78.5,125,84.5,129.5,92,129.5z M92,183.5h162c7.5,0,13.5-4.5,13.5-10.1v-20.2
		c0-5.6-6-10.1-13.5-10.1H92c-7.5,0-13.5,4.5-13.5,10.1v20.3C78.5,179,84.5,183.5,92,183.5z M-110.5,453.5H48.7
		c-8.1-12.3-14.3-26-18.5-40.5h-140.8c-7.5,0-13.5,4.5-13.5,10.1v20.2C-124,449-118,453.5-110.5,453.5z M51.5,467h-162
		c-7.5,0-13.5,4.5-13.5,10.1v20.3c0,5.6,6,10.1,13.5,10.1h162c7.5,0,13.5-4.5,13.5-10.1v-20.3C65,471.6,59,467,51.5,467z
		 M-110.5,399.5H27.1c-1.6-8.8-2.6-17.8-2.6-27c0-4.6,0.3-9,0.7-13.5h-135.7c-7.5,0-13.5,4.5-13.5,10.1v20.2
		C-124,395-118,399.5-110.5,399.5z M92,237.5h19.5C130.3,228.9,151,224,173,224c21.9,0,42.7,4.9,61.5,13.5H254
		c7.5,0,13.5-4.5,13.5-10.1v-20.3c0-5.6-6-10.1-13.5-10.1H92c-7.5,0-13.5,4.5-13.5,10.1v20.3C78.5,233,84.5,237.5,92,237.5z
		 M-110.5,237.5h162c7.5,0,13.5-4.5,13.5-10.1v-20.3c0-5.6-6-10.1-13.5-10.1h-162c-7.5,0-13.5,4.5-13.5,10.1v20.3
		C-124,233-118,237.5-110.5,237.5z M-110.5,345.5H27.1c2.6-14.3,7.4-27.9,13.8-40.5h-151.4c-7.5,0-13.5,4.5-13.5,10.1v20.3
		C-124,341-118,345.5-110.5,345.5z M-110.5,291.5H48.7c4.8-7.4,10.3-14.2,16.3-20.6v-9.8c0-5.6-6-10.1-13.5-10.1h-162
		c-7.5,0-13.5,4.5-13.5,10.1v20.3C-124,287-118,291.5-110.5,291.5z"/>
</g>
</svg>
