<?xml version="1.0" encoding="utf-8"?>
<!-- Generator: Adobe Illustrator 18.1.1, SVG Export Plug-In . SVG Version: 6.00 Build 0)  -->
<svg version="1.1" id="Layer_1" xmlns="http://www.w3.org/2000/svg" xmlns:xlink="http://www.w3.org/1999/xlink" x="0px" y="0px"
	 viewBox="0 0 127.9 128.9" enable-background="new 0 0 127.9 128.9" xml:space="preserve">
<g>
	<path fill="#FFFFFF" d="M63.7,58.3c-1,0-2.1,0-3.1,0c-10.6,0-21.1,0-31.7,0c-3.3,0-3.8,0.5-3.9,3.9c0,1.6,0,3.2,0,4.8
		c0,3.6,0.5,4.1,4,4.1c13.6,0,27.3,0,40.9,0c9.5,0,19.1,0,28.6,0c2.6,0,3.8-1.1,3.7-3.7c-0.1-1.7,0-3.4,0-5c0-3.4-0.6-4.1-4.1-4.1
		C86.7,58.3,75.2,58.3,63.7,58.3z M35.7,25.9c-2.4,0-4.8,0-7.3,0c-1.9,0-2.9,1-2.9,2.9c0,3.3,0,6.5,0,9.8c0,2.1,1,3.1,3,3.1
		c4.8,0,9.7,0,14.5,0c1.9,0,2.9-1,3-2.9c0-3.3,0-6.5,0-9.8c0-2.2-1.2-3.2-3.4-3.1C40.4,25.9,38.1,25.9,35.7,25.9z M64.5,41.7
		c2.4,0,4.8,0,7.3,0c1.9,0,3-0.9,3-2.9c0-3.4,0-6.7,0-10.1c0-1.9-1.1-2.9-3-2.9c-4.8,0-9.7,0-14.5,0c-2.1,0-3,1.2-3,3.2
		c0,3.2,0,6.3,0,9.5c0,2.1,1,3.1,3.1,3.1C59.7,41.7,62.1,41.7,64.5,41.7z M35.9,103.1c2.3,0,4.7,0,7,0c2.1,0,3.1-1,3.2-3
		c0-3.3,0-6.5,0-9.8c0-1.9-1-3-2.9-3c-4.9,0-9.9,0-14.8,0c-1.9,0-2.9,1-2.8,3c0,3.3,0,6.5,0,9.8c0,2.1,1.1,3,3.1,3
		C31.1,103.1,33.5,103.1,35.9,103.1z M64.5,103.1c2.3,0,4.7,0,7,0c2.2,0,3.3-1,3.3-3.2c0-3.2,0-6.3,0-9.5c0-2.1-1-3.1-3.1-3.1
		c-4.8,0-9.7,0-14.5,0c-2,0-3,1.1-3,3.2c0,3.2,0,6.3,0,9.5c0,2.3,1.2,3.2,3.3,3.2C59.8,103,62.2,103.1,64.5,103.1z M92.9,25.9
		c-2.4,0-4.9,0-7.3,0c-1.9,0-3,0.8-3,2.8c0,3.4,0,6.7,0,10.1c0,1.8,0.9,2.9,2.7,2.9c5,0.1,10.1,0.1,15.1,0c1.7,0,2.5-0.9,2.5-2.7
		c-0.1-3.5-0.1-6.9,0-10.4c0-1.9-0.9-2.7-2.7-2.8C97.8,25.8,95.3,25.9,92.9,25.9z M92.9,103.1c2.4,0,4.9,0,7.3,0
		c1.8,0,2.7-0.8,2.7-2.7c-0.1-3.5-0.1-6.9,0-10.4c0-2-1-2.7-2.7-2.7c-4.9,0-9.7,0-14.6,0c-2.1,0-3,1.1-3,3.2c0,3.2,0,6.3,0,9.5
		c0,2.3,1.1,3.2,3.3,3.1C88.2,103,90.6,103.1,92.9,103.1z M94.5,55.9c0-3.3,0-6.4,0-9.4c0-2.7-0.4-2.9-3.1-2c0,3.8,0,7.5,0,11.4
		C92.4,55.9,93.2,55.9,94.5,55.9z M37.4,55.7c0-3.4,0.1-6.6-0.1-9.9c0-0.6-0.9-1.2-1.4-1.9c-0.6,0.6-1.6,1.2-1.7,1.9
		c-0.2,2.6,0,5.2-0.1,7.8C34,56,35.1,56.4,37.4,55.7z M66.1,55.7c0-3.2,0.1-6.4-0.1-9.6c0-0.7-1-1.4-1.5-2.1
		c-0.6,0.7-1.5,1.5-1.6,2.3c-0.2,2.4,0,4.8-0.1,7.2C62.7,55.8,63.6,56.5,66.1,55.7z M91.2,73.8c0,3.3-0.1,6.6,0.1,9.8
		c0,0.6,1,1.2,1.5,1.8c0.6-0.6,1.6-1.2,1.7-1.9c0.2-2.5,0-5,0.1-7.5C94.6,73.7,93.8,72.9,91.2,73.8z M37.4,73.7
		c-0.3-0.2-0.5-0.4-0.8-0.6c-0.8,0.6-2.3,1.2-2.3,1.9c-0.3,3-0.2,6.1,0,9.2c0,0.5,1,1.2,1.6,1.3c0.4,0.1,1.4-0.7,1.4-1.1
		C37.4,80.7,37.4,77.2,37.4,73.7z M66,73.7c-0.3-0.2-0.6-0.4-0.8-0.6c-0.8,0.6-2.2,1.2-2.3,1.8c-0.2,3-0.2,6,0,8.9
		c0,0.5,0.9,1.4,1.5,1.4c0.5,0,1.6-0.8,1.6-1.3C66.1,80.6,66,77.2,66,73.7z"/>
	<path fill="#FFFFFF" d="M63.7,58.3c11.5,0,23,0,34.5,0c3.5,0,4.1,0.6,4.1,4.1c0,1.7-0.1,3.4,0,5c0.1,2.6-1.1,3.7-3.7,3.7
		c-9.5-0.1-19.1,0-28.6,0c-13.6,0-27.3,0-40.9,0c-3.5,0-4-0.5-4-4.1c0-1.6,0-3.2,0-4.8c0-3.4,0.5-3.9,3.9-3.9c10.6,0,21.1,0,31.7,0
		C61.6,58.3,62.7,58.3,63.7,58.3z"/>
	<path fill="#FFFFFF" d="M35.7,25.9c2.3,0,4.7,0,7,0c2.2-0.1,3.4,0.9,3.4,3.1c0,3.3,0,6.5,0,9.8c0,1.9-1.1,2.9-3,2.9
		c-4.8,0-9.7,0-14.5,0c-2,0-3.1-1-3-3.1c0.1-3.3,0-6.5,0-9.8c0-2,1-2.9,2.9-2.9C30.9,25.9,33.3,25.9,35.7,25.9z"/>
	<path fill="#FFFFFF" d="M64.5,41.7c-2.4,0-4.8,0-7.3,0c-2,0-3.1-1-3.1-3.1c0-3.2,0-6.3,0-9.5c0-2,0.9-3.2,3-3.2c4.8,0,9.7,0,14.5,0
		c1.9,0,3,0.9,3,2.9c0,3.4,0,6.7,0,10.1c0,2-1.1,2.9-3,2.9C69.4,41.7,66.9,41.7,64.5,41.7z"/>
	<path fill="#FFFFFF" d="M35.9,103.1c-2.4,0-4.8,0-7.3,0c-2,0-3.1-0.9-3.1-3c0-3.3,0-6.5,0-9.8c0-2,1-3,2.8-3c4.9,0,9.9,0,14.8,0
		c1.9,0,2.9,1.1,2.9,3c0,3.3,0,6.5,0,9.8c0,2-1.1,3.1-3.2,3C40.6,103,38.3,103.1,35.9,103.1z"/>
	<path fill="#FFFFFF" d="M64.5,103.1c-2.3,0-4.7,0-7,0c-2.2,0-3.3-0.9-3.3-3.2c0-3.2,0-6.3,0-9.5c0-2.1,0.9-3.2,3-3.2
		c4.8,0,9.7,0,14.5,0c2,0,3.1,1,3.1,3.1c0,3.2,0,6.3,0,9.5c0,2.2-1.1,3.2-3.3,3.2C69.2,103,66.8,103.1,64.5,103.1z"/>
	<path fill="#FFFFFF" d="M92.9,25.9c2.4,0,4.9,0,7.3,0c1.8,0,2.7,0.8,2.7,2.8c-0.1,3.5-0.1,6.9,0,10.4c0,1.8-0.8,2.7-2.5,2.7
		c-5,0.1-10.1,0.1-15.1,0c-1.8,0-2.7-1.1-2.7-2.9c0-3.4,0-6.7,0-10.1c0-2,1.1-2.8,3-2.8C88.1,25.9,90.5,25.9,92.9,25.9z"/>
	<path fill="#FFFFFF" d="M92.9,103.1c-2.3,0-4.7,0-7,0c-2.2,0-3.3-0.9-3.3-3.1c0-3.2,0-6.3,0-9.5c0-2.1,0.9-3.2,3-3.2
		c4.9,0,9.7,0,14.6,0c1.7,0,2.8,0.8,2.7,2.7c-0.1,3.5-0.1,6.9,0,10.4c0,2-0.9,2.7-2.7,2.7C97.7,103.1,95.3,103.1,92.9,103.1z"/>
	<path fill="#FFFFFF" d="M94.5,55.9c-1.3,0-2.1,0-3.1,0c0-3.9,0-7.6,0-11.4c2.7-0.9,3-0.7,3.1,2C94.5,49.5,94.5,52.6,94.5,55.9z"/>
	<path fill="#FFFFFF" d="M37.4,55.7c-2.3,0.7-3.4,0.3-3.3-2c0.1-2.6-0.1-5.2,0.1-7.8c0-0.7,1.1-1.2,1.7-1.9c0.5,0.6,1.4,1.2,1.4,1.9
		C37.5,49.1,37.4,52.3,37.4,55.7z"/>
	<path fill="#FFFFFF" d="M66.1,55.7c-2.5,0.8-3.4,0.1-3.3-2.2c0.1-2.4-0.1-4.8,0.1-7.2c0.1-0.8,1-1.5,1.6-2.3
		c0.5,0.7,1.5,1.4,1.5,2.1C66.2,49.3,66.1,52.5,66.1,55.7z"/>
	<path fill="#FFFFFF" d="M91.2,73.8c2.6-0.9,3.4-0.1,3.3,2.2c-0.1,2.5,0.1,5-0.1,7.5c-0.1,0.7-1.1,1.2-1.7,1.9
		c-0.5-0.6-1.4-1.2-1.5-1.8C91.1,80.4,91.2,77.2,91.2,73.8z"/>
	<path fill="#FFFFFF" d="M37.4,73.7c0,3.5,0.1,7-0.1,10.5c0,0.4-1,1.2-1.4,1.1c-0.6-0.1-1.6-0.8-1.6-1.3c-0.2-3-0.2-6.1,0-9.2
		c0.1-0.7,1.5-1.2,2.3-1.9C36.8,73.3,37.1,73.5,37.4,73.7z"/>
	<path fill="#FFFFFF" d="M66,73.7c0,3.4,0.1,6.9-0.1,10.3c0,0.5-1.1,1.3-1.6,1.3c-0.6,0-1.5-0.9-1.5-1.4c-0.1-3-0.2-6,0-8.9
		c0.1-0.7,1.5-1.2,2.3-1.8C65.5,73.3,65.8,73.5,66,73.7z"/>
</g>
</svg>
