<?xml version="1.0" encoding="utf-8"?>
<!-- Generator: Adobe Illustrator 18.1.1, SVG Export Plug-In . SVG Version: 6.00 Build 0)  -->
<svg version="1.1" id="Capa_1" xmlns="http://www.w3.org/2000/svg" xmlns:xlink="http://www.w3.org/1999/xlink" x="0px" y="0px"
	 viewBox="0 0 841.9 595.3" enable-background="new 0 0 841.9 595.3" xml:space="preserve">
<g>
	<g>
		<path fill="#1565C0" d="M289.1,293.6h41c5.9,0,10.9-4.8,10.9-10.9v-1.1c0-5.9-4.8-10.9-10.9-10.9h-31.2h-16.3
			c-6.4,0-12.1,4.3-13.7,10.3l-10.7,37.8c-5-3.1-10.7-4.8-16.9-4.8H29.8c-9.8,0-19.2,4.3-25.3,11.8c-6.4,7.9-8.6,18.1-6.2,27.9
			L27,469.4c3.5,14.3,16.3,24.2,30.9,24.2h33.1h117.5h21.7c7.4,0,13.3,6,13,13.4c-0.3,7.1-6.2,12.5-13.3,12.5H85.4
			c-20.5,0-37.5,16.5-37.5,37c0,21.2,18.1,38.3,39.7,36.8c17.5-1.3,32-15,34-32.6c0.7-5.8,0-11.4-1.9-16.5h43.1
			c-1.3,3.9-2.1,7.9-2.1,12.2c0,21.2,18,38.3,39.5,36.8c18.1-1.3,32.7-15.7,34.3-33.9c0.4-5.4-0.3-10.4-2-15.3
			c19.7-1.3,35.2-17.7,35.2-37.6c0-17.7-12.2-32.6-28.5-36.7l28.9-102.3L289.1,293.6z M84.9,568.8c-6.7,0-12.2-5.5-12.2-12.2
			c0-6.7,5.5-12.2,12.2-12.2c6.7,0,12.2,5.5,12.2,12.2C97.1,563.3,91.5,568.8,84.9,568.8z M197.8,568.8c-6.7,0-12.2-5.5-12.2-12.2
			c0-6.7,5.5-12.2,12.2-12.2c6.7,0,12.2,5.5,12.2,12.2C210,563.3,204.5,568.8,197.8,568.8z M22.2,347.7c-0.7-2.9,0.5-5.1,1.3-6
			s2.5-2.7,5.6-2.7h20.4l6,28.7H27.2L22.2,347.7z M33.3,392.3h27.5l5.6,26.7H39.8L33.3,392.3z M57.8,468.8c-3.2,0-6.2-2.3-7-5.4
			l-5-19.7h25.6l5.2,25.2h-19v-0.1H57.8z M121.7,468.8h-19.6L97,443.6h24.8C121.7,443.6,121.7,468.8,121.7,468.8z M121.7,419H91.6
			L86,392.3h35.6V419H121.7z M121.7,367.6H80.9l-6-28.7h47v28.7H121.7z M163.9,468.8h-17.4v-25.2h22.9L163.9,468.8z M175.1,419
			h-28.4v-26.7h34.2L175.1,419z M146.5,367.6v-28.7h45.9l-6.2,28.7H146.5z M215.4,463.6c-0.8,3.1-3.6,5.2-7,5.2h-19.2l5.5-25.2h26.1
			L215.4,463.6z M228,419h-27.6l5.8-26.7h29.3L228,419z M247.9,348l-5.5,19.6h-30.8l6.2-28.7H241c3.1,0,5,1.9,5.6,2.8
			C247.7,342.8,248.7,345,247.9,348z"/>
		<path fill="#1565C0" d="M680.1,392.5l-27.3-33.6c-4.4-5.4-6.8-12.1-6.8-19v-39.1v-11.7V71c0-29.3-23.8-53-53-53H364.3H165.7
			c-29.3,0-53,23.8-53,53v160.3l0,0v46.6h52.9V70.8c0,0,0,0,0.1,0h174.8h252.4c0.1,0,0.1,0,0.1,0v218.2v14.1v40.2H314.8l-6.8,24.4
			l-24.1,85.2H647c20,0,36-16.1,36-36v-15.4C683.2,398.2,682.1,395,680.1,392.5z M436.7,400.2c0,10-8.2,18.2-18.2,18.2H340
			c-10,0-18.2-8.2-18.2-18.2v-4h115.2v4H436.7z"/>
	</g>
</g>
</svg>
