<?xml version="1.0" encoding="utf-8"?>
<!-- Generator: Adobe Illustrator 18.1.1, SVG Export Plug-In . SVG Version: 6.00 Build 0)  -->
<svg version="1.1" id="Layer_1" xmlns="http://www.w3.org/2000/svg" xmlns:xlink="http://www.w3.org/1999/xlink" x="0px" y="0px"
	 viewBox="0 0 841.9 595.3" enable-background="new 0 0 841.9 595.3" xml:space="preserve">
<g>
	<path fill="#FFFFFF" d="M280.1,327.7c7,5.2,16,7,26.4,7c10.5,0,19.5-1.7,26.4-7l-26.4-75.8L280.1,327.7z"/>
	<path fill="#FFFFFF" d="M482.5,244.7h-26.4v52.8h26.4c14.2,0,26.4-12.2,26.4-26.4C508.9,256.9,496.7,244.7,482.5,244.7z"/>
	<path fill="#FFFFFF" d="M-1.5,86.4v422.4h440.1L843.3,86.4H-1.5z M481.6,350.6h-26.4v52.8h-96.7l-10.5-31.6
		c-12.2,5.2-26.4,8.7-42.1,8.7c-15.7,0-29.9-3.5-42.1-8.7l-10.5,31.6h-61.5l8.4-21.5c-16,12.5-40.4,21.5-71.7,21.5
		c-58.1,0-77.5-15.7-77.5-15.7l14.2-45.9c33.4,21.2,93.2,17.7,93.2,0c0-17.7-26.4-19.5-61.5-29.9c-33.7-10.5-45.9-36.9-45.9-59.8
		c0-22.9,17.7-59.8,77.5-59.8c59.8,0,79.3,12.2,79.3,12.2s-10.5,26.1-15.7,40.4c-17.4-7-88-19.5-88,7c0,10.5,3.5,17.4,56.3,31.6
		c20.3,4.6,52.8,16.5,60.1,47.3l54.3-138.8h61.5l66.8,167.2V192.1h79.3c44.1,0,78.4,35.1,78.4,79.3S525.7,350.6,481.6,350.6z"/>
</g>
</svg>
