<?xml version="1.0" encoding="utf-8"?>
<!-- Generator: Adobe Illustrator 18.1.1, SVG Export Plug-In . SVG Version: 6.00 Build 0)  -->
<svg version="1.1" id="Layer_1" xmlns="http://www.w3.org/2000/svg" xmlns:xlink="http://www.w3.org/1999/xlink" x="0px" y="0px"
	 viewBox="0 0 1793.9 237" enable-background="new 0 0 1793.9 237" xml:space="preserve">
<g>
	<g>
		<path fill="#DEDDDD" d="M1516.6,154.1h-389.4h-16.6H683.3h-16.6H277.3c-30,0-54.5,24.4-54.5,54.5v13.7h15.1v-13.7
			c0-21.7,17.7-39.4,39.4-39.4h389.4v53.1h1.6h13.5h1.6v-53.1h427.3v53.1h1.6h13.5h1.6v-53.1h389.4c21.7,0,39.4,17.7,39.4,39.4v13.7
			h15.1v-13.7C1571.1,178.6,1546.6,154.1,1516.6,154.1z"/>
		<path fill="#DEDDDD" d="M1296.6,157.1H903.3h-12.7H497.3c-30,0-54.5,24.4-54.5,54.5v13.7h15.1v-13.7c0-21.7,17.7-39.4,39.4-39.4
			h391v53.1h2.3h12.7h2.3v-53.1h391c21.7,0,39.4,17.7,39.4,39.4v13.7h15.1v-13.7C1351.1,181.6,1326.6,157.1,1296.6,157.1z"/>
		<path fill="#DEDDDD" d="M1137.6,160.1h-91.8H739.1h-91.8c-30,0-54.5,24.4-54.5,54.5v13.7h15.1v-13.7c0-21.7,17.7-39.4,39.4-39.4
			h91.8h306.7h91.8c21.7,0,39.4,17.7,39.4,39.4v13.7h15.1v-13.7C1192.1,184.6,1167.6,160.1,1137.6,160.1z"/>
	</g>
	<path fill="#DEDDDD" d="M1728.7,20.6H910.9v1.8c-12,0-21.7,9.7-21.7,21.7v114.7h15.1V44.2c0-3.7,3-6.6,6.6-6.6h763.7v-1.8h54V20.6z
		"/>
</g>
</svg>
