<?xml version="1.0" encoding="utf-8"?>
<!-- Generator: Adobe Illustrator 18.1.1, SVG Export Plug-In . SVG Version: 6.00 Build 0)  -->
<svg version="1.1" id="Capa_1" xmlns="http://www.w3.org/2000/svg" xmlns:xlink="http://www.w3.org/1999/xlink" x="0px" y="0px"
	 viewBox="-164 42.3 512 512" enable-background="new -164 42.3 512 512" xml:space="preserve">
<g>
	<path fill="#1565C0" d="M328.9,355.8v-55c0-20.9-16.8-37.7-37.7-37.7l-26-4.1l-44.6-67.1c-0.6-0.5-1.2-1.8-1.8-2.3
		c-6.9-9.2-17.9-15.6-30.7-15.6h-84.6v-23.4c0-11.9-8.8-21.5-19.7-21.5h-228.1c-10.9,0-19.7,9.7-19.7,21.5v147v79.7v5.1v22
		c0,12.2,9.9,21.4,21.4,21.4h30.7c6.9,24.3,29,41.7,55.6,41.7s48.7-17.9,55.6-41.7h70.1h119.3c6.9,24.3,29,41.7,55.6,41.7
		s48.7-17.9,55.6-41.7h26.6c12.2,0,21.4-9.9,21.4-21.4v-27.2C348,366.2,339.3,356.9,328.9,355.8z M-56.2,438.6
		c-16.3,0-29-13.3-29-29s13.3-29,29-29c16.3,0,29,13.3,29,29S-40,438.6-56.2,438.6z M143.2,261.2c-1.5,0-2.7-1.2-2.7-2.7v-53.2
		c0-1.5,1.2-2.7,2.7-2.7h46c0.9,0,1.8,0.4,2.2,1.2l35.8,53.2c1.2,1.8-0.1,4.2-2.2,4.2h-81.7V261.2z M244.3,438.6
		c-16.3,0-29-13.3-29-29s13.3-29,29-29c16.3,0,29,13.3,29,29C273.3,425.2,260,438.6,244.3,438.6z"/>
</g>
</svg>
